# xmcd
#
# Track frame offsets: 
#        150
#        12478
#        30363
#        48318
#        64824
#        84014
#        99863
#        117521
#        131496
#        133475
#        160052
#        171934
#        183483
#        208410
#        219855
#        235859
#        256362
#        272660
#
# Disc length: 3917 seconds
#
# Revision: 0
# Processed by: cddbd v1.5.2PL0 Copyright (c) Steve Scherf et al.
# Submitted via: ExactAudioCopyFreeDBPlugin 1.0
#
DISCID=fa0f4b12
DTITLE=Herr Klontig and Rademann - Howlin At The Moon
DYEAR=2009
DGENRE=Country
TTITLE0=Lost Highway
TTITLE1=Streamlined And Colourful
TTITLE2=Streets Of baltimore
TTITLE3=Personal Jesus
TTITLE4=I´ll Be There
TTITLE5=Here Comes A Man
TTITLE6=Four Strong Winds
TTITLE7=Love´s Been Good To Me
TTITLE8=Blue Blue Sky
TTITLE9=Highway Patrol Man
TTITLE10=Never Get Out Of This World Alive
TTITLE11=Howlin At The Moon
TTITLE12=Blood At Your Hands
TTITLE13=The Soundtrack Of My Life
TTITLE14=You Can Put Your Lipstick On
TTITLE15=Sunday Morning Coming Down
TTITLE16=Du Tust Mir Gut
TTITLE17=Ich Und Du
EXTD=
EXTT0=
EXTT1=
EXTT2=
EXTT3=
EXTT4=
EXTT5=
EXTT6=
EXTT7=
EXTT8=
EXTT9=
EXTT10=
EXTT11=
EXTT12=
EXTT13=
EXTT14=
EXTT15=
EXTT16=
EXTT17=
PLAYORDER=
